Metropolis-Thin.ufo
<glyph name="hyphen" format="2">
	<advance width="391"/>
	<unicode hex="002D"/>
	<outline>
		<contour>
			<point x="66" y="290" type="line"/>
			<point x="66" y="254" type="line"/>
			<point x="325" y="254" type="line"/>
			<point x="325" y="290" type="line"/>
		</contour>
	</outline>
</glyph>
<glyph name="zero" format="2">
	<advance width="674"/>
	<unicode hex="0030"/>
	<outline>
		<contour>
			<point x="337" y="-12" type="curve"/>
			<point x="337" y="-12" type="line"/>
			<point x="492" y="-12"/>
			<point x="601" y="135"/>
			<point x="601" y="344" type="curve"/>
			<point x="601" y="552"/>
			<point x="492" y="699"/>
			<point x="337" y="699" type="curve"/>
			<point x="182" y="699"/>
			<point x="73" y="552"/>
			<point x="73" y="344" type="curve"/>
			<point x="73" y="135"/>
			<point x="182" y="-12"/>
		</contour>
		<contour>
			<point x="337" y="24" type="curve"/>
			<point x="337" y="24" type="line"/>
			<point x="203" y="24"/>
			<point x="109" y="157"/>
			<point x="109" y="344" type="curve"/>
			<point x="109" y="531"/>
			<point x="203" y="663"/>
			<point x="337" y="663" type="curve"/>
			<point x="471" y="663"/>
			<point x="565" y="531"/>
			<point x="565" y="344" type="curve"/>
			<point x="565" y="157"/>
			<point x="471" y="24"/>
		</contour>
	</outline>
</glyph>
<glyph name="five" format="2">
	<advance width="601"/>
	<unicode hex="0035"/>
	<outline>
		<contour>
			<point x="310" y="-12" type="curve"/>
			<point x="310" y="-12" type="line"/>
			<point x="430" y="-12"/>
			<point x="531" y="91"/>
			<point x="531" y="214" type="curve"/>
			<point x="531" y="325"/>
			<point x="435" y="418"/>
			<point x="321" y="418" type="curve"/>
			<point x="258" y="418"/>
			<point x="196" y="398"/>
			<point x="156" y="364" type="curve"/>
			<point x="163" y="651" type="line"/>
			<point x="505" y="651" type="line"/>
			<point x="505" y="687" type="line"/>
			<point x="128" y="687" type="line"/>
			<point x="119" y="341" type="line"/>
			<point x="155" y="323" type="line"/>
			<point x="204" y="360"/>
			<point x="262" y="382"/>
			<point x="313" y="382" type="curve"/>
			<point x="412" y="382"/>
			<point x="495" y="304"/>
			<point x="495" y="211" type="curve"/>
			<point x="495" y="109"/>
			<point x="410" y="24"/>
			<point x="310" y="24" type="curve"/>
			<point x="227" y="24"/>
			<point x="145" y="61"/>
			<point x="90" y="124" type="curve"/>
			<point x="66" y="97" type="line"/>
			<point x="126" y="28"/>
			<point x="217" y="-12"/>
		</contour>
	</outline>
</glyph>
<glyph name="seven" format="2">
	<advance width="589"/>
	<unicode hex="0037"/>
	<outline>
		<contour>
			<point x="479" y="651" type="line"/>
			<point x="173" y="0" type="line"/>
			<point x="213" y="0" type="line"/>
			<point x="522" y="658" type="line"/>
			<point x="522" y="687" type="line"/>
			<point x="67" y="687" type="line"/>
			<point x="67" y="651" type="line"/>
		</contour>
	</outline>
</glyph>
<glyph name="equal" format="2">
	<advance width="663"/>
	<unicode hex="003D"/>
	<outline>
		<contour>
			<point x="102" y="462" type="line"/>
			<point x="102" y="426" type="line"/>
			<point x="561" y="426" type="line"/>
			<point x="561" y="462" type="line"/>
		</contour>
		<contour>
			<point x="102" y="242" type="line"/>
			<point x="102" y="206" type="line"/>
			<point x="561" y="206" type="line"/>
			<point x="561" y="242" type="line"/>
		</contour>
	</outline>
</glyph>
<glyph name="A" format="2">
	<advance width="794"/>
	<unicode hex="0041"/>
	<guideline x="397" y="600" angle="90"/>
	<anchor x="397" y="687" name="top"/>
	<anchor x="720" y="0" name="bottom"/>
	<outline>
		<contour>
			<point x="377" y="687" type="line"/>
			<point x="680" y="0" type="line"/>
			<point x="720" y="0" type="line"/>
			<point x="417" y="687" type="line"/>
		</contour>
		<contour>
			<point x="178" y="211" type="line"/>
			<point x="178" y="175" type="line"/>
			<point x="617" y="175" type="line"/>
			<point x="617" y="211" type="line"/>
		</contour>
		<contour>
			<point x="377" y="687" type="line"/>
			<point x="74" y="0" type="line"/>
			<point x="114" y="0" type="line"/>
			<point x="417" y="687" type="line"/>
		</contour>
	</outline>
</glyph>
<glyph name="G" format="2">
	<advance width="779"/>
	<unicode hex="0047"/>
	<anchor x="431" y="687" name="top"/>
	<anchor x="431" y="0" name="bottom"/>
	<outline>
		<contour>
			<point x="431" y="-12" type="curve"/>
			<point x="431" y="-12" type="line"/>
			<point x="533" y="-12"/>
			<point x="627" y="28"/>
			<point x="696" y="91" type="curve"/>
			<point x="671" y="116" type="line"/>
			<point x="608" y="59"/>
			<point x="523" y="24"/>
			<point x="431" y="24" type="curve"/>
			<point x="260" y="24"/>
			<point x="115" y="171"/>
			<point x="115" y="344" type="curve"/>
			<point x="115" y="516"/>
			<point x="260" y="663"/>
			<point x="431" y="663" type="curve"/>
			<point x="523" y="663"/>
			<point x="608" y="628"/>
			<point x="670" y="571" type="curve"/>
			<point x="696" y="597" type="line"/>
			<point x="627" y="660"/>
			<point x="533" y="699"/>
			<point x="431" y="699" type="curve"/>
			<point x="241" y="699"/>
			<point x="79" y="536"/>
			<point x="79" y="344" type="curve"/>
			<point x="79" y="152"/>
			<point x="241" y="-12"/>
		</contour>
		<contour>
			<point x="660" y="325" type="line"/>
			<point x="660" y="91" type="line"/>
			<point x="696" y="91" type="line"/>
			<point x="696" y="341" type="line"/>
			<point x="421" y="341" type="line"/>
			<point x="421" y="305" type="line"/>
			<point x="675" y="305" type="line"/>
		</contour>
	</outline>
</glyph>
<glyph name="N" format="2">
	<advance width="736"/>
	<unicode hex="004E"/>
	<anchor x="368" y="687" name="top"/>
	<anchor x="368" y="0" name="bottom"/>
	<outline>
		<contour>
			<point x="98" y="687" type="line"/>
			<point x="98" y="0" type="line"/>
			<point x="134" y="0" type="line"/>
			<point x="134" y="631" type="line"/>
			<point x="602" y="0" type="line"/>
			<point x="638" y="0" type="line"/>
			<point x="638" y="687" type="line"/>
			<point x="602" y="687" type="line"/>
			<point x="602" y="56" type="line"/>
			<point x="134" y="687" type="line"/>
		</contour>
	</outline>
</glyph>
<glyph name="U" format="2">
	<advance width="714"/>
	<unicode hex="0055"/>
	<anchor x="357" y="687" name="top"/>
	<anchor x="357" y="-12" name="bottom"/>
	<outline>
		<contour>
			<point x="357" y="-12" type="curve"/>
			<point x="357" y="-12" type="line"/>
			<point x="513" y="-12"/>
			<point x="623" y="103"/>
			<point x="623" y="265" type="curve"/>
			<point x="623" y="687" type="line"/>
			<point x="587" y="687" type="line"/>
			<point x="587" y="265" type="line" smooth="yes"/>
			<point x="587" y="124"/>
			<point x="492" y="24"/>
			<point x="357" y="24" type="curve"/>
			<point x="222" y="24"/>
			<point x="127" y="124"/>
			<point x="127" y="265" type="curve"/>
			<point x="127" y="687" type="line"/>
			<point x="91" y="687" type="line"/>
			<point x="91" y="265" type="line" smooth="yes"/>
			<point x="91" y="103"/>
			<point x="201" y="-12"/>
		</contour>
	</outline>
</glyph>
<glyph name="Y" format="2">
	<advance width="742"/>
	<unicode hex="0059"/>
	<anchor x="371" y="687" name="top"/>
	<outline>
		<contour>
			<point x="353" y="279" type="line"/>
			<point x="353" y="0" type="line"/>
			<point x="389" y="0" type="line"/>
			<point x="389" y="279" type="line"/>
			<point x="669" y="687" type="line"/>
			<point x="623" y="687" type="line"/>
			<point x="371" y="320" type="line"/>
			<point x="119" y="687" type="line"/>
			<point x="73" y="687" type="line"/>
		</contour>
	</outline>
</glyph>
<glyph name="asciicircum" format="2">
	<advance width="520"/>
	<unicode hex="005E"/>
	<outline>
		<contour>
			<point x="239" y="687" type="line"/>
			<point x="79" y="413" type="line"/>
			<point x="123" y="413" type="line"/>
			<point x="260" y="647" type="line"/>
			<point x="397" y="413" type="line"/>
			<point x="441" y="413" type="line"/>
			<point x="281" y="687" type="line"/>
		</contour>
	</outline>
</glyph>
<glyph name="underscore" format="2">
	<advance width="728"/>
	<unicode hex="005F"/>
	<outline>
		<contour>
			<point x="66" y="-91" type="line"/>
			<point x="66" y="-127" type="line"/>
			<point x="662" y="-127" type="line"/>
			<point x="662" y="-91" type="line"/>
		</contour>
	</outline>
</glyph>
<glyph name="grave" format="2">
	<advance width="259"/>
	<unicode hex="0060"/>
	<anchor x="189" y="704" name="top"/>
	<anchor x="189" y="517" name="_top"/>
	<outline>
		<contour>
			<point x="47" y="709" type="line"/>
			<point x="165" y="576" type="line"/>
			<point x="213" y="576" type="line"/>
			<point x="88" y="718" type="line"/>
		</contour>
	</outline>
</glyph>
<glyph name="f" format="2">
	<advance width="363"/>
	<unicode hex="0066"/>
	<outline>
		<contour>
			<point x="136" y="588" type="curve"/>
			<point x="136" y="0" type="line"/>
			<point x="172" y="0" type="line"/>
			<point x="172" y="588" type="line" smooth="yes"/>
			<point x="172" y="644"/>
			<point x="202" y="684"/>
			<point x="244" y="684" type="curve"/>
			<point x="274" y="684"/>
			<point x="298" y="676"/>
			<point x="318" y="659" type="curve"/>
			<point x="338" y="687" type="line"/>
			<point x="310" y="709"/>
			<point x="278" y="720"/>
			<point x="242" y="720" type="curve"/>
			<point x="180" y="720"/>
			<point x="136" y="665"/>
		</contour>
		<contour>
			<point x="45" y="517" type="line"/>
			<point x="45" y="481" type="line"/>
			<point x="317" y="481" type="line"/>
			<point x="317" y="517" type="line"/>
		</contour>
	</outline>
</glyph>
<glyph name="h" format="2">
	<advance width="529"/>
	<unicode hex="0068"/>
	<outline>
		<contour>
			<point x="431" y="334" type="curve"/>
			<point x="431" y="0" type="line"/>
			<point x="467" y="0" type="line"/>
			<point x="467" y="339" type="line" smooth="yes"/>
			<point x="467" y="450"/>
			<point x="387" y="529"/>
			<point x="274" y="529" type="curve"/>
			<point x="167" y="529"/>
			<point x="91" y="459"/>
			<point x="91" y="360" type="curve"/>
			<point x="104" y="330" type="line"/>
			<point x="104" y="425"/>
			<point x="172" y="493"/>
			<point x="269" y="493" type="curve"/>
			<point x="364" y="493"/>
			<point x="431" y="427"/>
		</contour>
		<contour>
			<point x="68" y="699" type="line"/>
			<point x="68" y="0" type="line"/>
			<point x="104" y="0" type="line"/>
			<point x="104" y="699" type="line"/>
		</contour>
	</outline>
</glyph>
<glyph name="o" format="2">
	<advance width="635"/>
	<unicode hex="006F"/>
	<anchor x="318" y="517" name="top"/>
	<outline>
		<contour>
			<point x="318" y="-12" type="curve"/>
			<point x="318" y="-12" type="line"/>
			<point x="463" y="-12"/>
			<point x="585" y="112"/>
			<point x="585" y="259" type="curve"/>
			<point x="585" y="406"/>
			<point x="463" y="529"/>
			<point x="318" y="529" type="curve"/>
			<point x="173" y="529"/>
			<point x="50" y="406"/>
			<point x="50" y="259" type="curve"/>
			<point x="50" y="112"/>
			<point x="173" y="-12"/>
		</contour>
		<contour>
			<point x="318" y="24" type="curve"/>
			<point x="318" y="24" type="line"/>
			<point x="192" y="24"/>
			<point x="86" y="131"/>
			<point x="86" y="259" type="curve"/>
			<point x="86" y="386"/>
			<point x="192" y="493"/>
			<point x="318" y="493" type="curve"/>
			<point x="443" y="493"/>
			<point x="549" y="386"/>
			<point x="549" y="259" type="curve"/>
			<point x="549" y="131"/>
			<point x="443" y="24"/>
		</contour>
	</outline>
</glyph>
<glyph name="p" format="2">
	<advance width="590"/>
	<unicode hex="0070"/>
	<outline>
		<contour>
			<point x="308" y="-12" type="curve"/>
			<point x="308" y="-12" type="line"/>
			<point x="434" y="-12"/>
			<point x="540" y="112"/>
			<point x="540" y="259" type="curve"/>
			<point x="540" y="406"/>
			<point x="434" y="529"/>
			<point x="308" y="529" type="curve"/>
			<point x="167" y="529"/>
			<point x="68" y="417"/>
			<point x="68" y="259" type="curve"/>
			<point x="68" y="100"/>
			<point x="167" y="-12"/>
		</contour>
		<contour>
			<point x="301" y="24" type="curve"/>
			<point x="301" y="24" type="line"/>
			<point x="186" y="24"/>
			<point x="104" y="121"/>
			<point x="104" y="259" type="curve"/>
			<point x="104" y="396"/>
			<point x="186" y="493"/>
			<point x="301" y="493" type="curve"/>
			<point x="411" y="493"/>
			<point x="504" y="386"/>
			<point x="504" y="259" type="curve"/>
			<point x="504" y="131"/>
			<point x="411" y="24"/>
		</contour>
		<contour>
			<point x="68" y="517" type="line"/>
			<point x="68" y="-172" type="line"/>
			<point x="104" y="-172" type="line"/>
			<point x="104" y="517" type="line"/>
		</contour>
	</outline>
</glyph>
<glyph name="t" format="2">
	<advance width="382"/>
	<unicode hex="0074"/>
	<anchor x="243" y="0" name="bottom"/>
	<outline>
		<contour>
			<point x="242" y="-12" type="curve"/>
			<point x="242" y="-12" type="line"/>
			<point x="276" y="-12"/>
			<point x="311" y="0"/>
			<point x="338" y="21" type="curve"/>
			<point x="318" y="50" type="line"/>
			<point x="297" y="34"/>
			<point x="270" y="24"/>
			<point x="244" y="24" type="curve"/>
			<point x="202" y="24"/>
			<point x="172" y="64"/>
			<point x="172" y="120" type="curve"/>
			<point x="172" y="659" type="line"/>
			<point x="136" y="659" type="line"/>
			<point x="136" y="120" type="line" smooth="yes"/>
			<point x="136" y="43"/>
			<point x="180" y="-12"/>
		</contour>
		<contour>
			<point x="45" y="517" type="line"/>
			<point x="45" y="481" type="line"/>
			<point x="308" y="481" type="line"/>
			<point x="308" y="517" type="line"/>
		</contour>
	</outline>
</glyph>
<glyph name="u" format="2">
	<advance width="529"/>
	<unicode hex="0075"/>
	<anchor x="256" y="517" name="top"/>
	<anchor x="461" y="0" name="bottom"/>
	<outline>
		<contour>
			<point x="255" y="-12" type="curve"/>
			<point x="255" y="-12" type="line"/>
			<point x="362" y="-12"/>
			<point x="438" y="58"/>
			<point x="438" y="157" type="curve"/>
			<point x="425" y="187" type="line"/>
			<point x="425" y="92"/>
			<point x="357" y="24"/>
			<point x="260" y="24" type="curve"/>
			<point x="165" y="24"/>
			<point x="98" y="90"/>
			<point x="98" y="183" type="curve"/>
			<point x="98" y="517" type="line"/>
			<point x="62" y="517" type="line"/>
			<point x="62" y="178" type="line" smooth="yes"/>
			<point x="62" y="67"/>
			<point x="142" y="-12"/>
		</contour>
		<contour>
			<point x="425" y="517" type="line"/>
			<point x="425" y="0" type="line"/>
			<point x="461" y="0" type="line"/>
			<point x="461" y="517" type="line"/>
		</contour>
	</outline>
</glyph>
<glyph name="z" format="2">
	<advance width="502"/>
	<unicode hex="007A"/>
	<anchor x="252" y="517" name="top"/>
	<outline>
		<contour>
			<point x="47" y="30" type="line"/>
			<point x="47" y="0" type="line"/>
			<point x="455" y="0" type="line"/>
			<point x="455" y="36" type="line"/>
			<point x="94" y="36" type="line"/>
			<point x="453" y="487" type="line"/>
			<point x="453" y="517" type="line"/>
			<point x="53" y="517" type="line"/>
			<point x="53" y="481" type="line"/>
			<point x="406" y="481" type="line"/>
		</contour>
	</outline>
</glyph>
<glyph name="braceright" format="2">
	<advance width="438"/>
	<unicode hex="007D"/>
	<outline>
		<contour>
			<point x="68" y="-131" type="curve"/>
			<point x="72" y="-166" type="line"/>
			<point x="205" y="-151"/>
			<point x="258" y="-103"/>
			<point x="258" y="3" type="curve"/>
			<point x="258" y="144" type="line" smooth="yes"/>
			<point x="258" y="218"/>
			<point x="290" y="248"/>
			<point x="371" y="248" type="curve"/>
			<point x="371" y="284" type="line"/>
			<point x="290" y="284"/>
			<point x="258" y="314"/>
			<point x="258" y="388" type="curve"/>
			<point x="258" y="528" type="line" smooth="yes"/>
			<point x="258" y="634"/>
			<point x="205" y="682"/>
			<point x="72" y="697" type="curve"/>
			<point x="68" y="662" type="line"/>
			<point x="179" y="650"/>
			<point x="223" y="610"/>
			<point x="223" y="524" type="curve"/>
			<point x="222" y="380" type="line" smooth="yes"/>
			<point x="222" y="313"/>
			<point x="242" y="280"/>
			<point x="292" y="266" type="curve"/>
			<point x="242" y="251"/>
			<point x="222" y="218"/>
			<point x="222" y="151" type="curve"/>
			<point x="223" y="8" type="line" smooth="yes"/>
			<point x="223" y="-79"/>
			<point x="179" y="-119"/>
		</contour>
	</outline>
</glyph>
<glyph name="Oslash" format="2">
	<advance width="861"/>
	<unicode hex="00D8"/>
	<anchor x="431" y="687" name="top"/>
	<outline>
		<contour>
			<point x="431" y="-12" type="curve"/>
			<point x="431" y="-12" type="line"/>
			<point x="622" y="-12"/>
			<point x="782" y="151"/>
			<point x="782" y="344" type="curve"/>
			<point x="782" y="537"/>
			<point x="622" y="699"/>
			<point x="431" y="699" type="curve"/>
			<point x="240" y="699"/>
			<point x="79" y="537"/>
			<point x="79" y="344" type="curve"/>
			<point x="79" y="151"/>
			<point x="240" y="-12"/>
		</contour>
		<contour>
			<point x="431" y="24" type="curve"/>
			<point x="431" y="24" type="line"/>
			<point x="259" y="24"/>
			<point x="115" y="170"/>
			<point x="115" y="344" type="curve"/>
			<point x="115" y="517"/>
			<point x="259" y="663"/>
			<point x="431" y="663" type="curve"/>
			<point x="602" y="663"/>
			<point x="746" y="517"/>
			<point x="746" y="344" type="curve"/>
			<point x="746" y="170"/>
			<point x="602" y="24"/>
		</contour>
		<contour>
			<point x="702" y="687" type="line"/>
			<point x="101" y="0" type="line"/>
			<point x="149" y="0" type="line"/>
			<point x="750" y="687" type="line"/>
		</contour>
	</outline>
</glyph>
<glyph name="ae" format="2">
	<advance width="986"/>
	<unicode hex="00E6"/>
	<anchor x="693" y="517" name="top"/>
	<anchor x="693" y="-12" name="bottom"/>
	<outline>
		<contour>
			<point x="244" y="-12" type="curve"/>
			<point x="244" y="-12" type="line"/>
			<point x="353" y="-12"/>
			<point x="436" y="49"/>
			<point x="465" y="143" type="curve"/>
			<point x="506" y="52"/>
			<point x="594" y="-12"/>
			<point x="693" y="-12" type="curve"/>
			<point x="776" y="-12"/>
			<point x="866" y="21"/>
			<point x="909" y="68" type="curve"/>
			<point x="884" y="95" type="line"/>
			<point x="841" y="48"/>
			<point x="767" y="24"/>
			<point x="693" y="24" type="curve"/>
			<point x="575" y="24"/>
			<point x="475" y="132"/>
			<point x="475" y="260" type="curve"/>
			<point x="475" y="390"/>
			<point x="571" y="493"/>
			<point x="693" y="493" type="curve"/>
			<point x="819" y="493"/>
			<point x="902" y="401"/>
			<point x="903" y="265" type="curve"/>
			<point x="919" y="278" type="line"/>
			<point x="460" y="278" type="line"/>
			<point x="460" y="242" type="line"/>
			<point x="939" y="242" type="line"/>
			<point x="939" y="414"/>
			<point x="841" y="529"/>
			<point x="693" y="529" type="curve"/>
			<point x="593" y="529"/>
			<point x="508" y="471"/>
			<point x="467" y="384" type="curve"/>
			<point x="444" y="471"/>
			<point x="376" y="529"/>
			<point x="276" y="529" type="curve"/>
			<point x="222" y="529"/>
			<point x="155" y="512"/>
			<point x="98" y="479" type="curve"/>
			<point x="113" y="448" type="line"/>
			<point x="161" y="477"/>
			<point x="219" y="493"/>
			<point x="271" y="493" type="curve"/>
			<point x="394" y="493"/>
			<point x="439" y="402"/>
			<point x="439" y="315" type="curve"/>
			<point x="439" y="289" type="line"/>
			<point x="381" y="310"/>
			<point x="313" y="325"/>
			<point x="256" y="325" type="curve"/>
			<point x="131" y="325"/>
			<point x="48" y="254"/>
			<point x="48" y="154" type="curve"/>
			<point x="48" y="57"/>
			<point x="129" y="-12"/>
		</contour>
		<contour>
			<point x="239" y="24" type="curve"/>
			<point x="239" y="24" type="line"/>
			<point x="153" y="24"/>
			<point x="85" y="78"/>
			<point x="85" y="155" type="curve"/>
			<point x="85" y="233"/>
			<point x="156" y="289"/>
			<point x="261" y="289" type="curve"/>
			<point x="321" y="289"/>
			<point x="387" y="271"/>
			<point x="440" y="253" type="curve"/>
			<point x="440" y="162" type="line"/>
			<point x="420" y="69"/>
			<point x="318" y="24"/>
		</contour>
	</outline>
</glyph>
<glyph name="lslash" format="2">
	<advance width="287"/>
	<unicode hex="0142"/>
	<anchor x="143" y="699" name="top"/>
	<anchor x="143" y="0" name="bottom"/>
	<outline>
		<contour>
			<point x="46" y="290" type="line"/>
			<point x="46" y="249" type="line"/>
			<point x="241" y="349" type="line"/>
			<point x="241" y="390" type="line"/>
		</contour>
		<contour>
			<point x="125" y="699" type="line"/>
			<point x="125" y="0" type="line"/>
			<point x="161" y="0" type="line"/>
			<point x="161" y="699" type="line"/>
		</contour>
	</outline>
</glyph>
<glyph name="oe" format="2">
	<advance width="1096"/>
	<unicode hex="0153"/>
	<anchor x="318" y="517" name="top"/>
	<anchor x="805" y="-12" name="bottom"/>
	<outline>
		<contour>
			<point x="318" y="-12" type="curve"/>
			<point x="318" y="-12" type="line"/>
			<point x="429" y="-12"/>
			<point x="527" y="62"/>
			<point x="566" y="162" type="curve"/>
			<point x="604" y="61"/>
			<point x="697" y="-12"/>
			<point x="803" y="-12" type="curve"/>
			<point x="886" y="-12"/>
			<point x="976" y="21"/>
			<point x="1019" y="68" type="curve"/>
			<point x="994" y="95" type="line"/>
			<point x="951" y="48"/>
			<point x="877" y="24"/>
			<point x="803" y="24" type="curve"/>
			<point x="685" y="24"/>
			<point x="585" y="132"/>
			<point x="585" y="260" type="curve"/>
			<point x="585" y="390"/>
			<point x="681" y="493"/>
			<point x="803" y="493" type="curve"/>
			<point x="929" y="493"/>
			<point x="1013" y="401"/>
			<point x="1013" y="264" type="curve"/>
			<point x="1029" y="278" type="line"/>
			<point x="570" y="278" type="line"/>
			<point x="570" y="242" type="line"/>
			<point x="1049" y="242" type="line"/>
			<point x="1049" y="414"/>
			<point x="951" y="529"/>
			<point x="803" y="529" type="curve"/>
			<point x="694" y="529"/>
			<point x="602" y="459"/>
			<point x="566" y="358" type="curve"/>
			<point x="526" y="458"/>
			<point x="429" y="529"/>
			<point x="318" y="529" type="curve"/>
			<point x="173" y="529"/>
			<point x="50" y="407"/>
			<point x="50" y="260" type="curve"/>
			<point x="50" y="113"/>
			<point x="173" y="-12"/>
		</contour>
		<contour>
			<point x="318" y="24" type="curve"/>
			<point x="318" y="24" type="line"/>
			<point x="192" y="24"/>
			<point x="86" y="132"/>
			<point x="86" y="260" type="curve"/>
			<point x="86" y="387"/>
			<point x="192" y="493"/>
			<point x="318" y="493" type="curve"/>
			<point x="443" y="493"/>
			<point x="549" y="387"/>
			<point x="549" y="260" type="curve"/>
			<point x="549" y="132"/>
			<point x="443" y="24"/>
		</contour>
	</outline>
</glyph>
<glyph name="circumflex" format="2">
	<advance width="352"/>
	<unicode hex="02C6"/>
	<anchor x="175" y="704" name="top"/>
	<anchor x="175" y="517" name="_top"/>
	<outline>
		<contour>
			<point x="153" y="713" type="line"/>
			<point x="47" y="576" type="line"/>
			<point x="91" y="576" type="line"/>
			<point x="175" y="682" type="line"/>
			<point x="261" y="576" type="line"/>
			<point x="305" y="576" type="line"/>
			<point x="197" y="713" type="line"/>
		</contour>
	</outline>
</glyph>
<glyph name="ring" format="2">
	<advance width="312"/>
	<unicode hex="02DA"/>
	<anchor x="156" y="704" name="top"/>
	<anchor x="156" y="517" name="_top"/>
	<outline>
		<contour>
			<point x="156" y="589" type="curve"/>
			<point x="156" y="589" type="line"/>
			<point x="212" y="589"/>
			<point x="259" y="636"/>
			<point x="259" y="692" type="curve"/>
			<point x="259" y="748"/>
			<point x="212" y="795"/>
			<point x="156" y="795" type="curve"/>
			<point x="100" y="795"/>
			<point x="53" y="748"/>
			<point x="53" y="692" type="curve"/>
			<point x="53" y="636"/>
			<point x="100" y="589"/>
		</contour>
		<contour>
			<point x="156" y="623" type="curve"/>
			<point x="156" y="623" type="line"/>
			<point x="119" y="623"/>
			<point x="87" y="655"/>
			<point x="87" y="692" type="curve"/>
			<point x="87" y="729"/>
			<point x="119" y="761"/>
			<point x="156" y="761" type="curve"/>
			<point x="193" y="761"/>
			<point x="225" y="729"/>
			<point x="225" y="692" type="curve"/>
			<point x="225" y="655"/>
			<point x="193" y="623"/>
		</contour>
	</outline>
</glyph>
<glyph name="ogonek" format="2">
	<advance width="283"/>
	<unicode hex="02DB"/>
	<anchor x="158" y="0" name="_bottom"/>
	<outline>
		<contour>
			<point x="153" y="-173" type="curve"/>
			<point x="153" y="-173" type="line"/>
			<point x="184" y="-173"/>
			<point x="215" y="-162"/>
			<point x="237" y="-144" type="curve"/>
			<point x="217" y="-114" type="line"/>
			<point x="204" y="-128"/>
			<point x="182" y="-137"/>
			<point x="158" y="-137" type="curve"/>
			<point x="115" y="-137"/>
			<point x="90" y="-112"/>
			<point x="90" y="-70" type="curve"/>
			<point x="90" y="-26"/>
			<point x="115" y="0"/>
			<point x="158" y="0" type="curve"/>
			<point x="134" y="21" type="line"/>
			<point x="87" y="15"/>
			<point x="54" y="-24"/>
			<point x="54" y="-73" type="curve"/>
			<point x="54" y="-132"/>
			<point x="95" y="-173"/>
		</contour>
	</outline>
</glyph>
<glyph name="hungarumlaut" format="2">
	<advance width="425"/>
	<unicode hex="02DD"/>
	<anchor x="153" y="704" name="top"/>
	<anchor x="153" y="517" name="_top"/>
	<outline>
		<contour>
			<point x="171" y="718" type="line"/>
			<point x="46" y="576" type="line"/>
			<point x="94" y="576" type="line"/>
			<point x="212" y="709" type="line"/>
		</contour>
		<contour>
			<point x="337" y="718" type="line"/>
			<point x="212" y="576" type="line"/>
			<point x="260" y="576" type="line"/>
			<point x="378" y="709" type="line"/>
		</contour>
	</outline>
</glyph>
<glyph name="dotaccentcomb" format="2">
	<advance width="0"/>
	<unicode hex="0307"/>
	<anchor x="-88" y="517" name="_top"/>
	<outline>
		<contour>
			<point x="-88" y="631" type="curve"/>
			<point x="-88" y="631" type="line"/>
			<point x="-72" y="631"/>
			<point x="-58" y="644"/>
			<point x="-58" y="661" type="curve"/>
			<point x="-58" y="677"/>
			<point x="-72" y="691"/>
			<point x="-88" y="691" type="curve"/>
			<point x="-105" y="691"/>
			<point x="-118" y="677"/>
			<point x="-118" y="661" type="curve"/>
			<point x="-118" y="644"/>
			<point x="-105" y="631"/>
		</contour>
	</outline>
</glyph>
<glyph name="commaaccentcomb" format="2">
	<advance width="0"/>
	<unicode hex="0326"/>
	<anchor x="-86" y="0" name="_bottom"/>
	<anchor x="-86" y="517" name="_top"/>
	<outline>
		<contour>
			<point x="-138" y="-249" type="curve"/>
			<point x="-112" y="-268" type="line"/>
			<point x="-73" y="-217"/>
			<point x="-54" y="-174"/>
			<point x="-54" y="-139" type="curve"/>
			<point x="-54" y="-112"/>
			<point x="-67" y="-97"/>
			<point x="-86" y="-97" type="curve"/>
			<point x="-104" y="-97"/>
			<point x="-117" y="-110"/>
			<point x="-117" y="-127" type="curve"/>
			<point x="-117" y="-144"/>
			<point x="-105" y="-157"/>
			<point x="-86" y="-157" type="curve"/>
			<point x="-93" y="-185"/>
			<point x="-112" y="-219"/>
		</contour>
	</outline>
</glyph>
<glyph name="endash" format="2">
	<advance width="597"/>
	<unicode hex="2013"/>
	<outline>
		<contour>
			<point x="66" y="290" type="line"/>
			<point x="66" y="254" type="line"/>
			<point x="531" y="254" type="line"/>
			<point x="531" y="290" type="line"/>
		</contour>
	</outline>
</glyph>
<glyph name="capital_V" format="2">
	<advance width="676"/>
	<outline>
		<contour>
			<point x="621" y="687" type="line"/>
			<point x="318" y="0" type="line"/>
			<point x="358" y="0" type="line"/>
			<point x="661" y="687" type="line"/>
		</contour>
		<contour>
			<point x="15" y="687" type="line"/>
			<point x="318" y="0" type="line"/>
			<point x="358" y="0" type="line"/>
			<point x="55" y="687" type="line"/>
		</contour>
	</outline>
</glyph>
<glyph name="lowercase_loop_reverse" format="2">
	<advance width="563"/>
	<anchor x="480" y="259" name="_loop_left"/>
	<outline>
		<contour>
			<point x="276" y="-12" type="curve"/>
			<point x="276" y="-12" type="line"/>
			<point x="417" y="-12"/>
			<point x="516" y="100"/>
			<point x="516" y="259" type="curve"/>
			<point x="516" y="417"/>
			<point x="417" y="529"/>
			<point x="276" y="529" type="curve"/>
			<point x="150" y="529"/>
			<point x="44" y="406"/>
			<point x="44" y="259" type="curve"/>
			<point x="44" y="112"/>
			<point x="150" y="-12"/>
		</contour>
		<contour>
			<point x="283" y="24" type="curve"/>
			<point x="283" y="24" type="line"/>
			<point x="173" y="24"/>
			<point x="80" y="131"/>
			<point x="80" y="259" type="curve"/>
			<point x="80" y="386"/>
			<point x="173" y="493"/>
			<point x="283" y="493" type="curve"/>
			<point x="398" y="493"/>
			<point x="480" y="396"/>
			<point x="480" y="259" type="curve"/>
			<point x="480" y="121"/>
			<point x="398" y="24"/>
		</contour>
	</outline>
</glyph>
<glyph name="lowercase_nh_shoulder" format="2">
	<advance width="469"/>
	<anchor x="22" y="330" name="_shoulder"/>
	<outline>
		<contour>
			<point x="349" y="334" type="curve"/>
			<point x="349" y="0" type="line"/>
			<point x="385" y="0" type="line"/>
			<point x="385" y="339" type="line" smooth="yes"/>
			<point x="385" y="450"/>
			<point x="305" y="529"/>
			<point x="192" y="529" type="curve"/>
			<point x="85" y="529"/>
			<point x="9" y="459"/>
			<point x="9" y="360" type="curve"/>
			<point x="22" y="330" type="line"/>
			<point x="22" y="425"/>
			<point x="90" y="493"/>
			<point x="187" y="493" type="curve"/>
			<point x="282" y="493"/>
			<point x="349" y="427"/>
		</contour>
	</outline>
</glyph>
